<?xml version="1.0" encoding="UTF-8"?>
<svg width="70px" height="50px" viewBox="0 0 70 50" version="1.1" xmlns="http://www.w3.org/2000/svg" xmlns:xlink="http://www.w3.org/1999/xlink">
    <!-- Generator: Sketch 52.4 (67378) - http://www.bohemiancoding.com/sketch -->
    <title>Group 2</title>
    <desc>Created with Sketch.</desc>
    <g id="Page-1" stroke="none" stroke-width="1" fill="none" fill-rule="evenodd">
        <g id="Group-2">
            <rect id="bg" fill="#1A1919" x="0" y="0" width="70" height="50" rx="6.63157895"></rect>
            <g id="Group" transform="translate(3.000000, 13.000000)">
                <path d="M9.50925959,5.50690096 C10.1873301,5.26279578 10.9122422,5.13141712 11.6667512,5.13141712 C14.9578637,5.13141712 17.7054507,7.65085345 18.3348373,11 L23,9.9744262 C21.9294386,4.28315242 17.2628867,0 11.6667512,0 C10.3844816,0 9.15267761,0.225160095 8,0.640129141 L9.50925959,5.50690096 Z" id="Fill-1" fill="#F9C623"></path>
                <path d="M3.8712271,21 L7,17.293994 C5.60327078,15.9976152 4.72222793,14.1057801 4.72222793,11.9981486 C4.72222793,9.89205473 5.60222245,8.00116104 6.99808306,6.70625706 L3.86856135,3 C1.4967994,5.20148739 0,8.4172838 0,11.9981486 C0,15.581461 1.49739844,18.7982302 3.8712271,21" id="Fill-3" fill="#009ACB"></path>
                <path d="M18.3360289,13 C17.7042233,16.3493117 14.9597055,18.8655787 11.6702581,18.8655787 C10.9152197,18.8655787 10.1885361,18.734474 9.51095234,18.4886159 L8,23.3604041 C9.1524873,23.7753792 10.3866567,24 11.6702581,24 C17.2602714,24 21.925239,19.7211962 23,14.0314118 L18.3360289,13 Z" id="Fill-5" fill="#DC3E2A"></path>
                <path d="M37.542961,15.2466406 C37.5413991,15.247868 37.540511,15.2490355 37.5391635,15.250233 L37.4045655,15.1615892 C37.0171562,15.7763177 36.4127669,16.274052 35.6496471,16.5975224 C34.1981635,17.2146159 32.853164,17.0559792 31.8872131,16.2276794 L31.7983693,16.359732 C31.7973586,16.3582651 31.7970218,16.3570975 31.7956436,16.3570975 L30.1484035,18.7660464 C30.5572812,19.0439824 30.9963553,19.2791084 31.4575103,19.467293 C33.2771399,20.2060509 35.1390936,20.1721322 36.9731783,19.3923006 C38.2999865,18.8304411 39.3406936,17.9731622 40.0523324,16.8870142 L37.542961,15.2466406 Z M32.4004616,9.30298806 C30.8676374,9.94696508 30.0774142,11.3524522 30.2400036,13.0005196 L36.7332601,10.2686392 C35.6166637,8.98604396 34.1634345,8.5609371 32.4004616,9.30298806 Z M28.0893457,16.6415299 C27.9343208,16.3961056 27.7238028,16.0034505 27.5967693,15.7146173 C26.8476452,14.0145791 26.8116911,12.2552055 27.4444699,10.5660943 C28.1400918,8.71397557 29.4687987,7.2957652 31.1855275,6.57380203 C33.3440867,5.66574983 35.7312021,5.84477371 37.8000906,7.04465278 C39.1143424,7.78170425 40.0457173,8.91955365 40.7533749,10.5285831 C40.8434437,10.7344606 40.9225794,10.9545581 41,11.1415453 L28.0893457,16.6415299 Z" id="Fill-7" fill="#FFFFFF"></path>
                <path d="M45.9419093,3 L45.9419093,17.1827923 L48,18.076528 L46.8306693,21 L44.5588512,19.9864951 C44.0490777,19.75 43.7019003,19.3880928 43.4391426,18.9792671 C43.1880138,18.5625793 43,17.9910918 43,17.2215318 L43,3 L45.9419093,3 Z" id="Fill-9" fill="#FFFFFF"></path>
                <path d="M51.553527,13.5001571 C51.555024,12.303065 52.1142977,11.2297104 53,10.5001685 L50.6261062,8 C49.0160196,9.34433272 48.0018017,11.3084524 48.0000052,13.496795 C47.9973438,15.6859546 49.0101311,17.6523052 50.6185875,19 L52.9898199,16.4973178 C52.1086088,15.7646966 51.5525622,14.6944527 51.553527,13.5001571" id="Fill-11" fill="#FFFFFF"></path>
                <path d="M55.4485612,16.9173241 C54.9854303,16.9161416 54.5395062,16.8492869 54.1234796,16.7280658 L53,19.6504949 C53.7676435,19.8761512 54.5900056,19.9988144 55.4450012,19.9999969 C59.169496,20.003083 62.2795596,17.6907972 63,14.6169787 L59.5470877,14 C59.154366,15.6666097 57.4684049,16.9187374 55.4485612,16.9173241" id="Fill-13" fill="#FFFFFF"></path>
                <path d="M55.445725,6.00000428 C54.5908566,5.99916981 53.767903,6.12039783 53,6.34328704 L54.1147415,9.26147829 C54.5325716,9.14111351 54.9789831,9.07470139 55.4420946,9.07470139 C57.4693294,9.07637033 59.1585378,10.3330212 59.5424728,12 L63,11.3886804 C62.2887648,8.31772405 59.1777131,6.00227748 55.445725,6.00000428" id="Fill-15" fill="#FFFFFF"></path>
            </g>
        </g>
    </g>
</svg>