<?xml version="1.0" encoding="UTF-8"?>
<svg width="70px" height="50px" viewBox="0 0 70 50" version="1.1" xmlns="http://www.w3.org/2000/svg" xmlns:xlink="http://www.w3.org/1999/xlink">
    <!-- Generator: Sketch 52.4 (67378) - http://www.bohemiancoding.com/sketch -->
    <title>Group</title>
    <desc>Created with Sketch.</desc>
    <g id="Page-1" stroke="none" stroke-width="1" fill="none" fill-rule="evenodd">
        <g id="Group">
            <rect id="bg" fill="#B3131B" x="0" y="0" width="70" height="50" rx="6.63157895"></rect>
            <g id="Hipercard_logo" transform="translate(3.000000, 17.000000)" fill="#FFFFFF" fill-rule="nonzero">
                <path d="M14.1560391,15.1248236 L14.9725647,15.1248236 L14.9956154,15.0637753 C15.0082934,15.0301984 15.0186661,14.9512618 15.0186661,14.8883571 C15.0186661,14.8254525 15.0455804,14.5967551 15.0784754,14.3801415 C15.1113709,14.163524 15.1885696,13.6649993 15.2500283,13.2723037 C15.3114869,12.8796081 15.4035132,12.2891174 15.4545312,11.9601021 C15.5055489,11.6310869 15.5678131,11.209928 15.5928962,11.0241936 C15.6179794,10.8384592 15.6485967,10.6864947 15.6609341,10.6864947 C15.673272,10.6864947 15.7260593,10.7685652 15.7782398,10.8688753 L15.8731131,11.0512597 L16.0836351,11.2668236 L16.2941576,11.4823874 L16.5532916,11.5878151 L16.8124253,11.6932428 L17.1212653,11.7339326 L17.4301054,11.7746186 L17.8221317,11.7501769 L18.2141585,11.7257352 L18.6386033,11.6141016 L19.0630486,11.5024679 L19.2909011,11.3967701 C19.41622,11.3386357 19.6383762,11.2118886 19.7845816,11.1151099 L20.0504095,10.9391437 L20.2982652,10.6873862 C20.4345856,10.5489219 20.6268362,10.3268897 20.7254888,10.1939868 C20.8241409,10.061084 20.9048565,9.94263849 20.9048565,9.93078236 C20.9048565,9.91892238 20.9533253,9.83662032 21.0125647,9.74789234 C21.0718045,9.65916049 21.1930422,9.41288727 21.2819821,9.20061937 C21.3709225,8.98835147 21.5099209,8.60626924 21.5908677,8.35154776 L21.7380442,7.88841779 L21.8141203,7.48725075 C21.855962,7.26660791 21.9097895,6.90189306 21.9337368,6.6767733 L21.9772779,6.26746289 L21.9521314,5.92011541 L21.9269848,5.57276793 L21.847743,5.22542045 L21.7685012,4.87807298 L21.6402271,4.61801006 L21.5119529,4.35794714 L21.2641743,4.09101061 L21.0163953,3.82407021 L20.7232797,3.67009879 L20.4301638,3.51612351 L20.1073727,3.43758053 L19.7845816,3.35903755 L19.4617905,3.33495479 L19.1389994,3.31087589 L18.7794234,3.3528702 L18.4198474,3.39486065 L18.1263608,3.47101851 L17.8328739,3.54717252 L17.5779156,3.66710388 C17.4376883,3.73306517 17.2336452,3.84509631 17.1244868,3.91606326 C17.0153279,3.98703021 16.9027251,4.06868002 16.8742576,4.097506 C16.8457901,4.12633584 16.7776364,4.17973859 16.7228044,4.21617534 L16.6231102,4.28242994 L16.6928258,3.94344582 C16.7311696,3.75700513 16.7632152,3.58275634 16.7640385,3.55622285 L16.7655347,3.50798015 L16.0693131,3.50798015 L15.3730911,3.50798015 L15.2510088,4.28951197 C15.1838633,4.71935448 15.0778481,5.38365653 15.0154195,5.76573875 C14.9529906,6.14782098 14.8588495,6.72094432 14.8062175,7.03934617 C14.7535851,7.35774803 14.6597038,7.92218768 14.5975923,8.29365651 C14.5354808,8.66512534 14.4328204,9.25561605 14.3694576,9.60585809 C14.3060952,9.95610013 14.21327,10.4684377 14.1631793,10.7443859 C14.1130889,11.0203342 14.0188127,11.5413554 13.9536768,11.9022109 C13.8885414,12.2630663 13.7838663,12.8361896 13.7210656,13.1758183 C13.6582653,13.5154469 13.5560666,14.0538355 13.4939578,14.3722374 C13.431849,14.6906392 13.371691,14.9902264 13.3602729,15.0379867 L13.3395129,15.1248236 L14.1560384,15.1248236 L14.1560391,15.1248236 Z M17.6712087,10.6626242 L17.3541545,10.6819946 L17.1469101,10.6448169 L16.9396657,10.6076352 L16.7291805,10.5099688 L16.5186952,10.4123025 L16.3716419,10.269589 L16.2245889,10.1268793 L16.1397096,9.93390849 C16.0930261,9.82777454 16.0330625,9.64747804 16.0064577,9.53325089 L15.958085,9.32556798 L15.9774657,8.99293259 L15.9968465,8.66030107 L16.0946955,8.13927985 C16.1485123,7.85271818 16.2451427,7.31432959 16.3094294,6.94286076 C16.3737161,6.57139193 16.471049,6.02710615 16.5257249,5.73333509 L16.6251354,5.1992073 L16.8428295,5.01508998 C16.9625611,4.91382661 17.1522236,4.77810637 17.264302,4.71349202 L17.4680808,4.59601139 L17.7339088,4.51238555 L17.9997367,4.42875972 L18.3415155,4.40836656 L18.6832943,4.3879734 L18.9615877,4.44825363 L19.2398811,4.50853385 L19.4362805,4.60045743 L19.6326799,4.69238101 L19.7973683,4.86065543 L19.9620567,5.02892599 L20.0509051,5.20711524 C20.0997719,5.30512126 20.1684079,5.49695356 20.20343,5.6334148 L20.267106,5.88152125 L20.2476011,6.61481037 L20.2280958,7.34809949 L20.1305662,7.78152739 C20.0769247,8.01991582 19.9748122,8.38463067 19.9036493,8.59200484 L19.7742625,8.96905438 L19.6158074,9.27427247 C19.5286572,9.44214551 19.3942675,9.66899815 19.3171638,9.7783933 C19.24006,9.8877846 19.1171635,10.0294908 19.0440608,10.0932908 C18.9709582,10.1570908 18.8485315,10.2568027 18.7720015,10.3148676 L18.6328558,10.4204381 L18.3105591,10.531844 L17.9882624,10.6432538 L17.6712087,10.6626242 Z M25.5568458,11.7236202 L25.9745755,11.7284715 L26.3923051,11.68975 C26.6220564,11.6684537 26.9980131,11.6241168 27.2277644,11.5912268 C27.4575157,11.558333 27.8544105,11.4847069 28.1097527,11.4276107 L28.574011,11.3238001 L28.5971338,11.1498755 C28.6098514,11.054216 28.6619905,10.7694451 28.7129987,10.5170509 L28.8057404,10.0581508 L28.7852777,10.0373563 L28.7648154,10.0165579 L28.6228842,10.0862204 C28.5448223,10.1245328 28.3016862,10.2159238 28.0825817,10.2893144 L27.68421,10.422746 L27.2661101,10.5050558 L26.8480102,10.5873656 L26.1834403,10.5886778 L25.5188704,10.58999 L25.2910178,10.5160358 C25.165699,10.4753615 24.9813792,10.4009403 24.8814187,10.3506599 L24.6996718,10.2592341 L24.5496692,10.1215109 L24.3996667,9.98378373 L24.282631,9.7758924 L24.1655949,9.56800108 L24.0922181,9.30723575 L24.0188412,9.04647042 L24.0183171,8.56391986 L24.0177931,8.08136931 L24.0829373,7.65088614 L24.148081,7.22039912 L24.71955,7.19326742 L25.2910194,7.16613186 L27.4034478,7.1799177 L29.5158763,7.19370353 L29.5796583,6.91873169 C29.6147381,6.7674966 29.6683704,6.45488387 29.6988407,6.22403673 L29.7542415,5.80431362 L29.7554112,5.45124649 L29.7565808,5.09817935 L29.6964327,4.83460051 L29.6362846,4.57102166 L29.5368322,4.39648728 C29.4821332,4.30049587 29.3857542,4.16137935 29.3226569,4.08734416 C29.2595596,4.01330898 29.1468972,3.9089272 29.0722956,3.85538552 C28.9976944,3.80184383 28.8512122,3.7118654 28.7467798,3.65544073 L28.5569027,3.552842 L28.2251422,3.47158199 L27.8933817,3.39032198 L27.4846214,3.35060472 L27.0758612,3.31088361 L26.696107,3.33601613 L26.3163527,3.36114865 L25.8606477,3.45007732 L25.4049426,3.53900985 L25.1201269,3.65474217 C24.9634783,3.71839553 24.7242331,3.83447134 24.588471,3.91269013 C24.4527089,3.99090892 24.2647305,4.11823493 24.1707414,4.19563553 C24.0767522,4.27303226 23.9140195,4.42350705 23.8091136,4.53001922 C23.7042072,4.6365314 23.5490298,4.82788127 23.4642747,4.95524201 C23.3795196,5.08260275 23.2495882,5.30837861 23.1755388,5.45696614 C23.101489,5.60555367 23.0049996,5.81396216 22.9611174,5.92009611 C22.9172353,6.02623006 22.8374926,6.24332224 22.7839112,6.40252317 C22.7303302,6.56172409 22.6461079,6.86565314 22.5967505,7.07792104 C22.5473931,7.29018894 22.4797592,7.63960893 22.4464533,7.85440861 L22.385898,8.24497383 L22.3864601,8.81928201 L22.3870221,9.39359019 L22.4447413,9.64445226 C22.4764869,9.78242639 22.5371845,9.99083488 22.5796247,10.1075822 C22.6220653,10.2243296 22.7005445,10.3980033 22.7540238,10.4935239 C22.8075027,10.5890444 22.9217141,10.7428383 23.0078272,10.8352906 C23.0939399,10.927743 23.2498404,11.0680289 23.3542728,11.147035 C23.4587052,11.2260411 23.64462,11.3371614 23.7674169,11.3939759 L23.9906836,11.4972693 L24.3019829,11.5737475 C24.4731978,11.6158113 24.7315954,11.6656479 24.8762002,11.6845012 C25.0208049,11.7033506 25.327096,11.7209534 25.5568473,11.7236202 L25.5568458,11.7236202 Z M26.2721535,6.28675997 C25.22081,6.28675997 24.36062,6.27911061 24.36062,6.2697631 C24.36062,6.26041559 24.4054769,6.12581845 24.4603021,5.97065833 C24.5151272,5.81549821 24.6114154,5.58455459 24.6742757,5.45744857 L24.7885666,5.22634671 L25.0397922,4.97242413 L25.2910178,4.71850154 L25.5378581,4.59854702 C25.6736202,4.5325703 25.8530541,4.46073498 25.9366,4.43890998 C26.020146,4.41708498 26.2593911,4.38813164 26.4682559,4.37456965 L26.8480102,4.34990412 L27.139636,4.3879927 L27.4312614,4.42608128 L27.6431912,4.52468937 L27.8551214,4.6232936 L27.9713775,4.75068136 C28.0353186,4.8207452 28.1115159,4.9239267 28.1407053,4.97996929 L28.1937767,5.0818656 L28.2288239,5.30801968 L28.263871,5.53417377 L28.2237788,5.91046687 L28.1836867,6.28675997 L26.2721535,6.28675997 Z M37.6332618,11.7238286 L38.0512269,11.7285371 L38.5256842,11.6713907 C38.78664,11.6399597 39.1340049,11.587873 39.2976107,11.555643 C39.4612202,11.523413 39.7260987,11.4594316 39.8862297,11.4134659 C40.0463645,11.3674964 40.1912407,11.3177987 40.2081739,11.303021 C40.2251072,11.2882433 40.2703587,11.1130876 40.3087291,10.9137834 C40.3470994,10.7144793 40.3954346,10.4472109 40.4161388,10.3198501 C40.436843,10.1924894 40.4475444,10.0814656 40.4399228,10.0731369 C40.4322973,10.0648045 40.4042866,10.0755684 40.3776735,10.097046 C40.3510603,10.1185237 40.1647301,10.1982168 39.9636084,10.2741315 L39.5979355,10.4121635 L39.0772051,10.5146966 L38.5564785,10.6172259 L38.1137421,10.6018731 L37.6710056,10.5865165 L37.4195323,10.497885 L37.1680553,10.4092535 L36.9737351,10.2364945 L36.779411,10.0637393 L36.650511,9.82515013 L36.5216111,9.58656101 L36.46022,9.26737569 L36.3988289,8.94819038 L36.3992087,8.53408657 L36.3995884,8.11998277 L36.4741912,7.61825864 L36.5487977,7.1165345 L36.6277334,6.84637535 C36.6711507,6.69778782 36.7202757,6.52411408 36.7369013,6.46043371 C36.7535232,6.39675334 36.8231701,6.21439591 36.8916664,6.05519498 C36.9601626,5.89599406 37.0823524,5.64994082 37.163202,5.5084083 L37.3101935,5.25107785 L37.4907325,5.06097072 L37.6712676,4.87086359 L37.8624549,4.75034945 L38.0536459,4.62983531 L38.2991722,4.55297889 C38.4342128,4.51071056 38.6728694,4.4558258 38.829518,4.43101362 L39.1143337,4.38590862 L39.5320633,4.40721259 L39.949793,4.42851657 L40.4434735,4.52894245 L40.937154,4.62936832 L41.137949,4.70547601 C41.2483853,4.7473391 41.3435707,4.78158757 41.3494645,4.78158757 C41.3553621,4.78158757 41.38185,4.63830673 41.4083226,4.46318571 C41.4347991,4.28806469 41.4819228,3.99994768 41.5130398,3.82293168 C41.5441569,3.64591183 41.5621231,3.49346102 41.5529634,3.48415211 C41.5437999,3.4748432 41.3954072,3.45089552 41.2232,3.43093462 C41.0509891,3.41097371 40.5829458,3.37553269 40.1831026,3.3521755 L39.4561125,3.30971035 L38.9434443,3.3496939 L38.4307761,3.38967745 L38.0510218,3.47077923 L37.6712676,3.55188487 L37.4267021,3.65129572 C37.2921932,3.70597593 37.0951729,3.80464191 36.9888835,3.87055688 C36.882594,3.93647571 36.7472952,4.02514195 36.6882206,4.06759553 C36.6291423,4.11004911 36.4499173,4.27568368 36.2899382,4.43567579 L35.9990655,4.72656772 L35.8367015,4.96830613 C35.7474023,5.10125917 35.5929221,5.37849263 35.4934151,5.58437706 L35.3124926,5.95870957 L35.1738254,6.3639483 C35.0975555,6.5868296 34.9910724,6.95154445 34.9371891,7.17442575 L34.8392239,7.57966447 L34.8036637,7.94630903 L34.7681073,8.31295359 L34.7684871,8.79538064 L34.7688668,9.2778077 L34.8047308,9.55845288 L34.8405948,9.83910192 L34.9543426,10.127794 L35.0680866,10.4164861 L35.1994626,10.6252072 L35.3308347,10.8339244 L35.5397451,11.0428732 L35.7486555,11.251822 L35.9696269,11.3705145 L36.1905983,11.489207 L36.4809356,11.5711617 C36.6406185,11.6162358 36.8713191,11.6679674 36.9936038,11.6861183 C37.1158847,11.704273 37.4040194,11.7212428 37.633896,11.7238286 L37.6332618,11.7238286 Z M43.8799872,11.709572 L44.3926554,11.6946437 L44.7154465,11.6106821 L45.0382376,11.5267167 L45.2471024,11.4263641 C45.361978,11.3711706 45.5499564,11.2622154 45.664832,11.1842436 C45.7797077,11.1062718 45.95752,10.9580394 46.0599663,10.8548386 C46.1624164,10.7516339 46.3143409,10.5755558 46.3975754,10.4635555 C46.4808099,10.3515514 46.5539278,10.2650078 46.560057,10.2712369 C46.5661825,10.277466 46.5470315,10.4559409 46.5174942,10.6678499 C46.4879607,10.8797588 46.463459,11.1616853 46.4630526,11.2943528 L46.4623311,11.5355663 L47.1592978,11.5355663 L47.8562645,11.5355663 L47.8775726,10.9855995 L47.8988768,10.4356326 L47.9983268,9.72164059 C48.0530266,9.32894496 48.1413726,8.74713794 48.1946521,8.42873608 C48.2479279,8.11033423 48.3405385,7.57194564 48.4004524,7.23231699 C48.4603662,6.89268835 48.5552782,6.36298344 48.6113716,6.05519498 L48.7133584,5.4955796 L48.7167762,5.01219542 L48.720194,4.52881509 L48.6126438,4.30540891 L48.5050974,4.08200659 L48.3592566,3.93972148 L48.2134158,3.79743638 L47.973977,3.67412802 L47.7345381,3.55082353 L47.3776869,3.47015786 L47.0208394,3.38948834 L46.5295248,3.35149239 L46.0382102,3.31349257 L45.4053308,3.35328702 C45.0572481,3.37517377 44.5673879,3.41839151 44.3167501,3.44932473 L43.861045,3.50557187 L43.5504706,3.50676829 L43.2398962,3.50796471 L43.1947093,3.72988115 C43.1698544,3.8519352 43.1007885,4.14191631 43.0412316,4.37428405 C42.981671,4.60664794 42.9384625,4.80237824 42.9452108,4.80923642 C42.951959,4.81609461 43.1180597,4.77778218 43.3143243,4.7240977 C43.5105888,4.67040936 43.927502,4.58212135 44.2407993,4.5279004 L44.8104306,4.42931547 L45.3230988,4.40784168 L45.835767,4.38636789 L46.1659937,4.44519697 L46.4962204,4.5040222 L46.7166373,4.61458676 L46.9370543,4.72514746 L47.0604744,4.91209759 L47.1838945,5.09904772 L47.1821476,5.39379135 L47.1804008,5.68853499 L47.1149767,6.01197724 L47.0495526,6.33542335 L45.68314,6.34043287 L44.3167311,6.3454424 L43.8695249,6.47005909 C43.6235581,6.53859847 43.3511984,6.62959579 43.2642765,6.67227322 C43.1773583,6.7149545 43.0904136,6.7498745 43.0710689,6.7498745 C43.0517242,6.7498745 42.9054049,6.83233479 42.7459157,6.93311574 L42.4559354,7.11635697 L42.2275588,7.348003 C42.1019513,7.47541006 41.9414786,7.6664859 41.8709506,7.77261985 C41.8004265,7.87875381 41.6858394,8.10047342 41.6163178,8.26532839 L41.489909,8.56506611 L41.431894,8.9021321 L41.3738789,9.2391981 L41.3738789,9.59279783 L41.3738789,9.94640142 L41.429304,10.2408054 L41.484733,10.5352133 L41.5875628,10.7272308 C41.6441234,10.8328399 41.747914,10.9875369 41.8182141,11.0710083 L41.9460318,11.2227683 L42.1731704,11.3629925 L42.4003052,11.5032167 L42.6602926,11.577989 C42.803289,11.619115 43.0209262,11.6689014 43.1439361,11.688623 L43.3675886,11.7244847 L43.8802568,11.7095565 L43.8799872,11.709572 Z M44.35468,10.6303865 L44.0508766,10.6464841 L43.8496638,10.5944052 C43.7389958,10.5657606 43.5710723,10.5018795 43.4764983,10.4524481 L43.3045456,10.3625662 L43.2106969,10.249219 C43.1590807,10.1868739 43.0802286,10.0643761 43.0354707,9.97699501 L42.954097,9.818126 L42.9381397,9.4471203 L42.9221863,9.07611845 L42.9865584,8.85107202 C43.0219667,8.72729668 43.1050303,8.51252016 43.1711493,8.37378571 L43.2913681,8.12154583 L43.5215789,7.88919739 L43.7517897,7.6568528 L43.9962717,7.53722247 L44.2407537,7.41759214 L44.5445571,7.34425165 L44.8483604,7.27091116 L45.797746,7.27091116 L46.7471316,7.27091116 L46.8071973,7.29615174 L46.8672592,7.32139232 L46.8167101,7.62420214 C46.7889045,7.79074753 46.7225957,8.092002 46.6693503,8.29365651 C46.616105,8.49531102 46.5221082,8.79174507 46.4604665,8.952401 C46.3988248,9.11305693 46.3483896,9.25509117 46.3483896,9.26803565 C46.3483896,9.28098014 46.2859808,9.39804396 46.2097034,9.52817576 L46.0710209,9.76478114 L45.8432937,9.99407293 C45.718047,10.1201832 45.6017776,10.2233647 45.5849241,10.2233647 C45.5680707,10.2233647 45.4912957,10.2668025 45.4143196,10.3198926 L45.2743573,10.4164166 L44.9664222,10.5153527 L44.6584833,10.6142889 L44.35468,10.6303865 Z M56.71568,11.7233694 L57.0764465,11.7279891 L57.4182253,11.6716146 C57.6062036,11.640608 57.8454488,11.5906595 57.9498812,11.5606216 C58.0543136,11.5305799 58.242292,11.452612 58.3676109,11.3873609 L58.5954634,11.2687224 L58.7914773,11.0933814 L58.9874913,10.9180404 L59.1939295,10.6382404 C59.3074722,10.4843539 59.4102869,10.3323932 59.4224124,10.300553 L59.4444533,10.2426618 L59.4252833,10.4356326 C59.4147376,10.5417666 59.3910941,10.7154403 59.3727406,10.8215743 C59.3543908,10.9277082 59.3280777,11.1317749 59.3142698,11.2750557 L59.2891604,11.5355663 L60.0341053,11.5355663 L60.7790502,11.5355663 L60.7790502,11.2750557 L60.7790502,11.0145451 L60.8925435,10.0303939 C60.9549675,9.48911075 61.0472744,8.76836473 61.0976716,8.42873608 C61.1480688,8.08910744 61.2258576,7.60282097 61.2705395,7.34809949 C61.3152176,7.093378 61.394347,6.63314259 61.4463771,6.32535413 C61.4984034,6.01756567 61.5923888,5.47917708 61.6552267,5.12893504 C61.7180647,4.778693 61.818635,4.22293704 61.8787121,3.89392179 C61.938793,3.56490654 62.0321708,3.05256901 62.0862174,2.75539394 C62.1402678,2.45821888 62.2371014,1.93719766 62.3014013,1.59756902 C62.3657051,1.25794037 62.4596373,0.780337589 62.510137,0.5362295 C62.5606406,0.292121412 62.6018895,0.0793710814 62.6018021,0.0634509887 L62.6018023,0.0345053655 L61.7890597,0.0345053655 L60.9763173,0.0345053655 L60.9523131,0.275718892 C60.9391128,0.408386331 60.8768977,0.846912522 60.8140521,1.25022154 C60.7512104,1.65353055 60.6487641,2.29612339 60.5863971,2.67820561 C60.52403,3.06028784 60.4639036,3.43079568 60.4527844,3.50155422 L60.43257,3.63021172 L60.3684295,3.60249339 C60.3331542,3.58724484 60.1419441,3.53334423 59.9435225,3.48270869 L59.582756,3.39064617 L59.0890755,3.35157344 L58.595395,3.31249684 L58.1776654,3.35205586 L57.7599358,3.39161488 L57.3801815,3.48916935 L57.0004273,3.58672382 L56.6396608,3.76554988 L56.2788943,3.94437594 L56.0130663,4.14438634 L55.7472384,4.34440059 L55.5176655,4.59455253 C55.3914011,4.73213686 55.2089937,4.95970349 55.1123159,5.10025572 L54.9365352,5.35581084 L54.730116,5.79233785 C54.6165885,6.03242829 54.4784301,6.35044034 54.4230999,6.49902787 C54.3677697,6.64761541 54.2701881,6.97699344 54.2062489,7.23097778 L54.0900023,7.69276467 L54.0327278,8.29231729 L53.975457,8.89186606 L54.0184642,9.37429311 L54.0614676,9.85672016 L54.1123129,10.0303939 C54.1402742,10.1259145 54.1992386,10.2960993 54.2433395,10.4085858 L54.3235246,10.613104 L54.4697148,10.8142182 L54.6159087,11.0153363 L54.7828297,11.1542868 L54.9497545,11.2932374 L55.177607,11.4082171 C55.3029259,11.4714537 55.5131503,11.5531807 55.6447731,11.5898297 C55.7763959,11.6264787 55.9900076,11.6704761 56.1194659,11.6876042 C56.2489241,11.7047322 56.51719,11.720826 56.7156116,11.7233694 L56.71568,11.7233694 Z M57.3631837,10.6283835 L57.0764465,10.6438597 L56.8829124,10.6084573 C56.7764672,10.5889865 56.6061361,10.5367918 56.5043999,10.4924702 L56.3194216,10.4118856 L56.1637718,10.2822671 L56.0081219,10.1526448 L55.8924526,9.92749414 L55.7767794,9.7023435 L55.7240696,9.45148144 L55.6713559,9.20061937 L55.6758256,8.69889523 L55.6802915,8.1971711 L55.7415079,7.75333821 L55.8027242,7.30950532 L55.8978679,7.00075201 C55.9501942,6.83093769 55.9932621,6.67072173 55.9935773,6.64472084 C55.9939571,6.61871995 56.0455581,6.47978096 56.1083922,6.33596753 C56.1712302,6.1921541 56.2762094,5.97028782 56.3416866,5.84292708 C56.4071601,5.71556634 56.5295435,5.51701866 56.6136476,5.40171088 C56.697748,5.28640309 56.8475762,5.11272935 56.9465933,5.01576923 C57.0456105,4.91880912 57.2031249,4.79163363 57.2966204,4.73315575 L57.4666174,4.62683654 L57.7652105,4.52182954 L58.0638075,4.41682254 L58.690402,4.4164366 L59.3169964,4.4164366 L59.6777629,4.51815538 C59.8761845,4.57409762 60.0868646,4.63897827 60.1459353,4.6623316 L60.253345,4.70478904 L60.2323674,4.81073002 C60.2208305,4.86899563 60.1756967,5.12507563 60.1320705,5.37979711 C60.0884444,5.63451859 60.0024832,6.12080506 59.941039,6.46043371 C59.8795947,6.80006235 59.7851954,7.31239988 59.7312551,7.59896155 C59.6773186,7.88552322 59.5991918,8.25023807 59.5576391,8.409439 C59.5160864,8.56863993 59.4574675,8.78914769 59.4273682,8.89945753 C59.3972727,9.00976737 59.3256055,9.20080848 59.2681107,9.32399333 C59.2106159,9.44717819 59.1100076,9.62612003 59.044538,9.72164059 C58.9790721,9.81716114 58.8683358,9.94948123 58.798461,10.0156818 C58.7285862,10.0818862 58.5774251,10.1995328 58.4625494,10.2771225 L58.2536846,10.4181919 L57.9518028,10.5155496 L57.649921,10.6129111 L57.3631837,10.6283873 L57.3631837,10.6283835 Z M1.47273524,11.5355663 L2.39543927,11.5355663 L2.46164183,11.120679 C2.49804887,10.892491 2.56916164,10.4539649 2.61966516,10.1461764 C2.67016867,9.83838793 2.76416544,9.26526459 2.82854897,8.87256897 C2.8929287,8.47987335 2.98944324,7.89806633 3.04302276,7.57966447 C3.09660229,7.26126262 3.18173179,6.76734608 3.23219733,6.4820696 C3.28266667,6.19679697 3.33353474,5.95365374 3.34524257,5.9417513 L3.36652779,5.92011541 L5.84758746,5.92011541 L8.32864714,5.92011541 L8.35619451,5.9481039 L8.38374568,5.97609239 L8.34072332,6.19896597 C8.31706083,6.32154489 8.24706833,6.69971753 8.18518738,7.03934617 C8.12330263,7.37897482 8.01926896,7.95209816 7.95400061,8.31295359 C7.88873225,8.67380903 7.79435573,9.18614656 7.74427754,9.45148144 C7.69419555,9.71681632 7.59285054,10.2725723 7.51906809,10.6864947 C7.44528185,11.1004171 7.38506802,11.4607901 7.38525789,11.4873236 L7.38563765,11.5355663 L8.31213542,11.5355663 L9.238637,11.5355663 L9.27963146,11.2943528 C9.30218127,11.1616853 9.33845919,10.9228839 9.36025329,10.763683 C9.38204358,10.6044821 9.43457878,10.2658183 9.47699353,10.0110968 C9.51941208,9.75637533 9.60416183,9.25272149 9.66532505,8.89186606 C9.72648826,8.53101062 9.8288662,7.91446885 9.892832,7.52177323 C9.95679401,7.1290776 10.0516859,6.55595427 10.1036997,6.24816581 C10.1557131,5.94037735 10.2483951,5.41935613 10.3096601,5.09034088 C10.3709247,4.76132563 10.4729708,4.20556966 10.5364292,3.85532762 C10.5998873,3.50508558 10.6949561,2.97538068 10.7476933,2.67820561 C10.8004309,2.38103055 10.8965885,1.84264196 10.9613776,1.48178652 C11.0261667,1.12093109 11.1079779,0.699772271 11.14318,0.545878042 L11.2071842,0.266070351 L10.2690955,0.266070351 L9.33100841,0.266070351 L9.30549273,0.449392631 C9.29146081,0.550219885 9.24614094,0.832439711 9.2047857,1.0765478 C9.16342667,1.32065589 9.08820116,1.75484024 9.0376103,2.04140191 C8.98701944,2.32796357 8.89456828,2.87503585 8.83216326,3.25711808 C8.76975445,3.6392003 8.69022632,4.14498455 8.65542944,4.38108434 L8.59215859,4.81035951 L7.21508243,4.83868377 L5.83800247,4.86700803 L4.68456736,4.83918936 C4.05017654,4.82389063 3.52761574,4.80833332 3.52331692,4.8046167 C3.5190181,4.80091166 3.54062612,4.65092316 3.57133304,4.47132522 C3.60203617,4.29172728 3.66012718,3.9797938 3.7004229,3.7781393 C3.74071862,3.57648479 3.81710618,3.17703519 3.87017303,2.89047352 C3.92323609,2.60391185 3.98334739,2.24788068 4.00374779,2.09929315 C4.02414818,1.95070562 4.06690471,1.70322054 4.09876229,1.54932631 C4.13061608,1.39543208 4.19107295,1.07126812 4.23310795,0.828966236 C4.27514294,0.586660495 4.31992736,0.360884634 4.33263014,0.327242101 L4.35572679,0.266070351 L3.42521121,0.266070351 L2.49469564,0.266070351 L2.43509701,0.603769288 C2.40231283,0.789503703 2.35860691,1.05435616 2.33796727,1.19233029 C2.31732763,1.33030443 2.24801868,1.77317246 2.18394655,2.17648148 C2.11987822,2.5797905 2.02529283,3.1789649 1.97376398,3.50798015 C1.92223133,3.8369954 1.82838647,4.4361698 1.76522195,4.83947881 C1.70205743,5.24278783 1.59783388,5.86801329 1.53361744,6.22886872 C1.469401,6.58972416 1.37642957,7.10206169 1.32701595,7.36739657 C1.27759853,7.63273145 1.18343088,8.13638529 1.11774859,8.48662733 C1.05207009,8.83686937 0.956250509,9.33183953 0.904820394,9.58656101 C0.853386482,9.8412825 0.796529679,10.1365279 0.778464771,10.2426618 C0.76040366,10.3487958 0.701621503,10.6549054 0.647844507,10.9229071 C0.594063714,11.1909088 0.550061592,11.4383939 0.550061592,11.4728739 L0.550061592,11.5355663 L1.47276562,11.5355663 L1.47273524,11.5355663 Z M11.6873245,11.5355663 L12.5041622,11.5355663 L12.5272129,11.4745181 C12.539891,11.4409411 12.5502636,11.3528692 12.5502636,11.2787993 C12.5502636,11.2047294 12.6016284,10.8197256 12.6644075,10.4232362 C12.7271865,10.0267429 12.8309156,9.38104709 12.8949164,8.98835147 C12.9589171,8.59565584 13.0534341,8.02253251 13.1049543,7.71474405 C13.1564744,7.40695559 13.2480981,6.89461806 13.3085629,6.5762162 C13.3690278,6.25781435 13.461848,5.76284419 13.5148302,5.47628252 C13.5678128,5.18972085 13.6720029,4.64453197 13.7463645,4.26474996 C13.820726,3.88496794 13.8908412,3.55899005 13.9021765,3.54034907 L13.9227861,3.50645954 L13.0967489,3.51686838 L12.2707117,3.52727723 L12.2019162,4.02900136 C12.164079,4.30494964 12.0813545,4.85202191 12.018084,5.24471754 C11.9548139,5.63741316 11.8591113,6.23658756 11.8054125,6.5762162 C11.7517134,6.91584485 11.658066,7.46291712 11.5973068,7.79193237 C11.536548,8.12094762 11.4434388,8.62460147 11.390397,8.91116314 C11.3373556,9.19772481 11.2421793,9.70137865 11.178894,10.0303939 C11.1156087,10.3594091 11.0306896,10.7935935 10.9901846,10.995248 C10.9496793,11.1969025 10.9061773,11.4009692 10.8935129,11.4487294 L10.8704869,11.5355663 L11.6873245,11.5355663 Z M30.7917677,11.5355663 L31.6025521,11.5355663 L31.6269057,11.1869105 C31.6402958,10.9951515 31.6861815,10.6087275 31.7288659,10.3281903 C31.7715541,10.0476532 31.8589507,9.48814589 31.9230836,9.08483688 C31.9872203,8.68152786 32.1064138,8.01022869 32.1879584,7.59306437 C32.269503,7.17589618 32.3616846,6.76124048 32.3928054,6.67159782 C32.4239225,6.58195901 32.449385,6.48482522 32.449385,6.45574452 C32.449385,6.42665996 32.5103431,6.26819618 32.5848509,6.10359979 C32.6593549,5.93900339 32.7982044,5.68696034 32.893405,5.5435097 L33.0664932,5.28268262 L33.2981927,5.06467962 L33.5298883,4.84667276 L33.8156002,4.70799621 L34.1013159,4.56931966 L34.5380332,4.57163531 L34.9747506,4.57395096 L35.1894598,4.63915966 C35.307552,4.67502908 35.4143579,4.70437222 35.4268062,4.70437222 C35.4392584,4.70437222 35.4494434,4.66334276 35.4494434,4.61319351 C35.4494434,4.56304811 35.4921657,4.30883221 35.5443819,4.04827143 C35.5965981,3.78771451 35.6393205,3.56353645 35.6393205,3.55010182 C35.6393205,3.53666719 35.5154257,3.4873863 35.3639987,3.44059088 C35.2125717,3.39379545 35.0032322,3.34478086 34.8987997,3.33167428 L34.7089226,3.30784239 L34.4620824,3.3522141 C34.3263203,3.37661719 34.1244505,3.43049078 34.0134825,3.4719332 C33.9025183,3.51337561 33.7192983,3.60736784 33.606329,3.68081253 C33.4933597,3.75425337 33.3176323,3.89737211 33.215824,3.99884774 C33.1140156,4.10032338 32.9427769,4.30492262 32.8352912,4.45351015 C32.7278018,4.60209769 32.6153946,4.75840405 32.5854889,4.80085763 L32.5311195,4.87804596 L32.5641315,4.7236693 C32.5822914,4.63876214 32.6328632,4.36088416 32.6765198,4.10616268 C32.7201763,3.85144119 32.7649835,3.6126398 32.7760876,3.57549292 L32.7962829,3.50795313 L32.0721903,3.50795313 L31.3480977,3.50795313 L31.3480977,3.60098436 C31.3480977,3.65215251 31.305361,3.96042339 31.2531273,4.28603078 C31.2008936,4.61164202 31.1147608,5.15592394 31.0617209,5.49555259 C31.008681,5.83518123 30.914546,6.42567195 30.8525318,6.80775417 C30.7905179,7.1898364 30.6963563,7.73690867 30.6432842,8.02347034 C30.590212,8.31003201 30.4959726,8.81368586 30.433863,9.14270111 C30.3717534,9.47171636 30.2686312,10.0101049 30.2047018,10.3391202 C30.1407729,10.6681354 30.0642831,11.0566899 30.034725,11.2025759 C30.0051664,11.3484618 29.9809825,11.4830589 29.9809825,11.5016806 L29.9809825,11.5355663 L30.7917677,11.5355393 L30.7917677,11.5355663 Z M50.0384538,11.5355663 L50.8674649,11.5355663 L50.8674649,11.2777303 L50.8674649,11.0198904 L50.9629959,10.380416 C51.0155425,10.0286996 51.1022252,9.47174337 51.15563,9.14272812 C51.2090349,8.81371287 51.275602,8.3968959 51.3035519,8.21646818 C51.3315056,8.03604046 51.4055805,7.64527455 51.4681677,7.34809949 C51.530755,7.05092442 51.6089274,6.729628 51.6418901,6.63410745 C51.674849,6.53858689 51.702066,6.43836943 51.7023698,6.41140368 C51.7027495,6.38443794 51.773342,6.21102278 51.8594095,6.02604095 L52.0158987,5.68970825 L52.2223444,5.41093874 L52.4287902,5.13216923 L52.6547288,4.95955683 C52.7789958,4.86462291 52.9788187,4.73863612 53.0987754,4.67959091 L53.3168797,4.57223352 L53.7915725,4.57555262 L54.2662652,4.57887172 L54.4531309,4.63985822 L54.6399966,4.70084085 L54.6714896,4.68105749 L54.7029826,4.66127798 L54.7045776,4.538124 C54.705451,4.47039124 54.7460961,4.21835977 54.7949059,3.97805321 L54.8836545,3.54113253 L54.7838285,3.50141528 C54.7289274,3.47957098 54.5985616,3.43435406 54.4941292,3.40093151 L54.304252,3.340165 L53.9624732,3.34105267 L53.6206944,3.34194033 L53.3421599,3.44153257 L53.0636254,3.54112095 L52.8544871,3.66928446 L52.6453489,3.79744796 L52.3734449,4.08690419 L52.1015446,4.37636042 L51.955457,4.60090513 C51.8751086,4.72440259 51.804368,4.81992315 51.7982577,4.81317303 C51.7921437,4.80641905 51.8358154,4.5490693 51.8953039,4.24128084 C51.9547924,3.93349238 52.0042022,3.64258887 52.0051022,3.59482859 L52.0067352,3.50799558 L51.3041899,3.50799558 L50.6016446,3.50799558 L50.6016446,3.53258778 C50.6016446,3.54611118 50.5666198,3.79359626 50.5238101,4.08255463 C50.4810042,4.37150913 50.3950507,4.92922568 50.3328089,5.3219213 C50.2705634,5.71461692 50.1684323,6.34852607 50.1058526,6.7306083 C50.0432691,7.11269052 49.9489268,7.6597628 49.8962017,7.94632447 C49.8434766,8.23288614 49.7498292,8.73653998 49.6881002,9.06555523 C49.6263711,9.39457048 49.5249426,9.92427539 49.4627047,10.2426772 C49.4004668,10.5610791 49.3180221,10.9822379 49.279496,11.1785857 L49.2094466,11.5355817 L50.0384614,11.5355817 L50.0384538,11.5355663 Z M13.2935132,2.11774116 L13.5240947,2.11859023 L13.7073759,2.05512213 L13.8906566,1.99165403 L14.052869,1.82443323 L14.2150811,1.65720858 L14.3005231,1.43441991 L14.3859651,1.21162737 L14.3890184,0.883576978 L14.3920716,0.555526583 L14.3161207,0.427428692 L14.2401699,0.299334661 L14.1079391,0.216129502 L13.9757083,0.132924344 L13.6902094,0.132924344 L13.4047106,0.132920484 L13.2103425,0.221359012 L13.0159744,0.309797539 L12.9031479,0.432662061 L12.790321,0.555526583 L12.701716,0.767794486 L12.6131106,0.980062389 L12.5963616,1.31070631 L12.5796125,1.64135024 L12.6621046,1.80568419 L12.7445964,1.97001428 L12.9037643,2.04345511 L13.0629318,2.11689595 L13.2935132,2.11774502 L13.2935132,2.11774116 Z" id="path2997"></path>
            </g>
        </g>
    </g>
</svg>